<mxfile host="Electron" agent="Mozilla/5.0 (X11; Linux x86_64) AppleWebKit/537.36 (KHTML, like Gecko) draw.io/26.2.2 Chrome/134.0.6998.178 Electron/35.1.2 Safari/537.36" version="26.2.2">
  <diagram name="Page-1" id="ueiK5fOBO5i_SIte8CQ1">
    <mxGraphModel dx="2914" dy="2424" grid="1" gridSize="10" guides="1" tooltips="1" connect="1" arrows="1" fold="1" page="1" pageScale="1" pageWidth="850" pageHeight="1100" math="0" shadow="0">
      <root>
        <mxCell id="0" />
        <mxCell id="1" parent="0" />
        <mxCell id="_f2B8dfApNTsiLnRWpGS-1" value="" style="rounded=0;whiteSpace=wrap;html=1;fillColor=none;strokeColor=none;" vertex="1" parent="1">
          <mxGeometry x="-320" y="400" width="840" height="60" as="geometry" />
        </mxCell>
        <mxCell id="eQVwrbU0B-6UAIk1BRom-1" value="&lt;b&gt;&lt;font style=&quot;font-size: 18px;&quot;&gt;IMEM&lt;/font&gt;&lt;/b&gt;" style="rounded=0;whiteSpace=wrap;html=1;verticalAlign=bottom;fillColor=#dae8fc;strokeColor=#6c8ebf;strokeWidth=1;perimeterSpacing=0;" parent="1" vertex="1">
          <mxGeometry x="80" y="40" width="120" height="960" as="geometry" />
        </mxCell>
        <mxCell id="eQVwrbU0B-6UAIk1BRom-8" value="0x00000000" style="rounded=0;whiteSpace=wrap;html=1;" parent="1" vertex="1">
          <mxGeometry x="-40" y="40" width="120" height="40" as="geometry" />
        </mxCell>
        <mxCell id="eQVwrbU0B-6UAIk1BRom-9" value="0x00000080" style="rounded=0;whiteSpace=wrap;html=1;" parent="1" vertex="1">
          <mxGeometry x="-40" y="120" width="120" height="40" as="geometry" />
        </mxCell>
        <mxCell id="eQVwrbU0B-6UAIk1BRom-10" value="_reset_handler" style="rounded=0;whiteSpace=wrap;html=1;" parent="1" vertex="1">
          <mxGeometry x="-40" y="200" width="120" height="40" as="geometry" />
        </mxCell>
        <mxCell id="eQVwrbU0B-6UAIk1BRom-11" value="jal x0, _reset_handler" style="rounded=0;whiteSpace=wrap;html=1;" parent="1" vertex="1">
          <mxGeometry x="80" y="120" width="120" height="40" as="geometry" />
        </mxCell>
        <mxCell id="eQVwrbU0B-6UAIk1BRom-12" value="set all regs to 0" style="rounded=0;whiteSpace=wrap;html=1;" parent="1" vertex="1">
          <mxGeometry x="80" y="200" width="120" height="40" as="geometry" />
        </mxCell>
        <mxCell id="eQVwrbU0B-6UAIk1BRom-13" value="tail _start" style="rounded=0;whiteSpace=wrap;html=1;" parent="1" vertex="1">
          <mxGeometry x="80" y="240" width="120" height="40" as="geometry" />
        </mxCell>
        <mxCell id="eQVwrbU0B-6UAIk1BRom-14" value="_start" style="rounded=0;whiteSpace=wrap;html=1;" parent="1" vertex="1">
          <mxGeometry x="-40" y="280" width="120" height="40" as="geometry" />
        </mxCell>
        <mxCell id="eQVwrbU0B-6UAIk1BRom-15" value="&lt;div&gt;&lt;span style=&quot;background-color: transparent; color: light-dark(rgb(0, 0, 0), rgb(255, 255, 255));&quot;&gt;clear BSS segment&lt;/span&gt;&lt;/div&gt;&lt;div&gt;...&lt;/div&gt;&lt;div&gt;execute init()&lt;/div&gt;&lt;div&gt;...&lt;/div&gt;&lt;div&gt;execute main()&lt;br&gt;&lt;div&gt;&lt;br&gt;&lt;br&gt;&lt;/div&gt;&lt;/div&gt;" style="rounded=0;whiteSpace=wrap;html=1;" parent="1" vertex="1">
          <mxGeometry x="80" y="280" width="120" height="240" as="geometry" />
        </mxCell>
        <mxCell id="eQVwrbU0B-6UAIk1BRom-16" value="_cstart" style="rounded=0;whiteSpace=wrap;html=1;" parent="1" vertex="1">
          <mxGeometry x="-40" y="320" width="120" height="40" as="geometry" />
        </mxCell>
        <mxCell id="eQVwrbU0B-6UAIk1BRom-24" value="__bss_start" style="rounded=0;whiteSpace=wrap;html=1;" parent="1" vertex="1">
          <mxGeometry x="-40" y="840" width="120" height="40" as="geometry" />
        </mxCell>
        <mxCell id="eQVwrbU0B-6UAIk1BRom-25" value=".tbss&lt;div&gt;.bss&lt;/div&gt;" style="rounded=0;whiteSpace=wrap;html=1;" parent="1" vertex="1">
          <mxGeometry x="80" y="840" width="120" height="120" as="geometry" />
        </mxCell>
        <mxCell id="eQVwrbU0B-6UAIk1BRom-26" value="__bss_size" style="endArrow=classic;startArrow=classic;html=1;rounded=0;fontSize=12;align=left;" parent="1" edge="1">
          <mxGeometry width="50" height="50" relative="1" as="geometry">
            <mxPoint x="240" y="960" as="sourcePoint" />
            <mxPoint x="240" y="840" as="targetPoint" />
          </mxGeometry>
        </mxCell>
        <mxCell id="eQVwrbU0B-6UAIk1BRom-27" value=".data" style="rounded=0;whiteSpace=wrap;html=1;fillColor=#ffe6cc;strokeColor=#d79b00;" parent="1" vertex="1">
          <mxGeometry x="80" y="720" width="120" height="120" as="geometry" />
        </mxCell>
        <mxCell id="eQVwrbU0B-6UAIk1BRom-29" value="__data_size" style="endArrow=classic;startArrow=classic;html=1;rounded=0;fontSize=12;align=left;" parent="1" edge="1">
          <mxGeometry width="50" height="50" relative="1" as="geometry">
            <mxPoint x="240" y="840" as="sourcePoint" />
            <mxPoint x="240" y="720" as="targetPoint" />
          </mxGeometry>
        </mxCell>
        <mxCell id="eQVwrbU0B-6UAIk1BRom-36" value=".text" style="rounded=0;whiteSpace=wrap;html=1;fillColor=#ffe6cc;strokeColor=#d79b00;verticalAlign=bottom;" parent="1" vertex="1">
          <mxGeometry x="80" y="520" width="120" height="200" as="geometry" />
        </mxCell>
        <mxCell id="eQVwrbU0B-6UAIk1BRom-37" value="__code_start" style="rounded=0;whiteSpace=wrap;html=1;" parent="1" vertex="1">
          <mxGeometry x="-40" y="520" width="120" height="40" as="geometry" />
        </mxCell>
        <mxCell id="eQVwrbU0B-6UAIk1BRom-17" value="init()" style="rounded=0;whiteSpace=wrap;html=1;" parent="1" vertex="1">
          <mxGeometry x="80" y="540" width="120" height="40" as="geometry" />
        </mxCell>
        <mxCell id="eQVwrbU0B-6UAIk1BRom-18" value="main()" style="rounded=0;whiteSpace=wrap;html=1;" parent="1" vertex="1">
          <mxGeometry x="80" y="600" width="120" height="40" as="geometry" />
        </mxCell>
        <mxCell id="eQVwrbU0B-6UAIk1BRom-41" value="1. First&amp;nbsp;&lt;div&gt;Instruction&lt;div style=&quot;font-size: 18px;&quot;&gt;Executed&amp;nbsp;&lt;/div&gt;&lt;div style=&quot;font-size: 18px;&quot;&gt;after Reset&lt;/div&gt;&lt;/div&gt;" style="endArrow=classic;html=1;rounded=0;fontSize=18;strokeWidth=5;align=left;" parent="1" edge="1">
          <mxGeometry x="-1" y="-71" width="50" height="50" relative="1" as="geometry">
            <mxPoint x="-90" y="80" as="sourcePoint" />
            <mxPoint x="-50" y="130" as="targetPoint" />
            <mxPoint x="5" y="-94" as="offset" />
          </mxGeometry>
        </mxCell>
        <mxCell id="eQVwrbU0B-6UAIk1BRom-42" value="2." style="endArrow=classic;html=1;rounded=0;exitX=0.5;exitY=0.75;exitDx=0;exitDy=0;exitPerimeter=0;entryX=0.667;entryY=0.25;entryDx=0;entryDy=0;entryPerimeter=0;fontSize=18;strokeWidth=5;" parent="1" target="eQVwrbU0B-6UAIk1BRom-10" edge="1">
          <mxGeometry width="50" height="50" relative="1" as="geometry">
            <mxPoint x="150" y="150" as="sourcePoint" />
            <mxPoint x="-80" y="230" as="targetPoint" />
          </mxGeometry>
        </mxCell>
        <mxCell id="eQVwrbU0B-6UAIk1BRom-43" value="3." style="endArrow=classic;html=1;rounded=0;exitX=0.25;exitY=0.5;exitDx=0;exitDy=0;exitPerimeter=0;entryX=0.667;entryY=0.25;entryDx=0;entryDy=0;entryPerimeter=0;fontSize=18;strokeWidth=5;" parent="1" source="eQVwrbU0B-6UAIk1BRom-13" target="eQVwrbU0B-6UAIk1BRom-14" edge="1">
          <mxGeometry width="50" height="50" relative="1" as="geometry">
            <mxPoint x="380" y="190" as="sourcePoint" />
            <mxPoint x="430" y="140" as="targetPoint" />
          </mxGeometry>
        </mxCell>
        <mxCell id="eQVwrbU0B-6UAIk1BRom-44" value="&lt;font style=&quot;font-size: 18px;&quot;&gt;5.&lt;/font&gt;" style="endArrow=classic;html=1;rounded=0;strokeWidth=5;" parent="1" target="eQVwrbU0B-6UAIk1BRom-17" edge="1">
          <mxGeometry width="50" height="50" relative="1" as="geometry">
            <mxPoint x="160" y="400" as="sourcePoint" />
            <mxPoint x="430.04" y="560" as="targetPoint" />
          </mxGeometry>
        </mxCell>
        <mxCell id="eQVwrbU0B-6UAIk1BRom-45" value="&lt;font style=&quot;font-size: 18px;&quot;&gt;6.&lt;/font&gt;" style="endArrow=classic;html=1;rounded=0;exitX=0.333;exitY=0.625;exitDx=0;exitDy=0;exitPerimeter=0;entryX=0.5;entryY=0;entryDx=0;entryDy=0;strokeWidth=5;" parent="1" source="eQVwrbU0B-6UAIk1BRom-15" target="eQVwrbU0B-6UAIk1BRom-18" edge="1">
          <mxGeometry width="50" height="50" relative="1" as="geometry">
            <mxPoint x="420" y="530" as="sourcePoint" />
            <mxPoint x="470" y="480" as="targetPoint" />
          </mxGeometry>
        </mxCell>
        <mxCell id="eQVwrbU0B-6UAIk1BRom-51" value="" style="endArrow=classic;html=1;rounded=0;exitX=0.25;exitY=0.375;exitDx=0;exitDy=0;exitPerimeter=0;entryX=0.25;entryY=0.417;entryDx=0;entryDy=0;entryPerimeter=0;" parent="1" source="eQVwrbU0B-6UAIk1BRom-15" target="eQVwrbU0B-6UAIk1BRom-25" edge="1">
          <mxGeometry width="50" height="50" relative="1" as="geometry">
            <mxPoint x="600.04" y="440" as="sourcePoint" />
            <mxPoint x="300" y="630" as="targetPoint" />
          </mxGeometry>
        </mxCell>
        <mxCell id="eQVwrbU0B-6UAIk1BRom-55" value="4. crt0&amp;nbsp;&lt;div&gt;startup&amp;nbsp;&lt;/div&gt;&lt;div&gt;code&lt;/div&gt;" style="endArrow=classic;html=1;rounded=0;fontSize=18;align=left;strokeWidth=5;" parent="1" edge="1">
          <mxGeometry x="-0.2727" y="10" width="50" height="50" relative="1" as="geometry">
            <mxPoint x="220" y="280" as="sourcePoint" />
            <mxPoint x="220" y="390" as="targetPoint" />
            <mxPoint as="offset" />
          </mxGeometry>
        </mxCell>
        <mxCell id="eQVwrbU0B-6UAIk1BRom-57" value="&lt;font style=&quot;font-size: 18px;&quot;&gt;vectors.S&lt;/font&gt;" style="endArrow=classic;startArrow=classic;html=1;rounded=0;align=left;" parent="1" edge="1">
          <mxGeometry width="50" height="50" relative="1" as="geometry">
            <mxPoint x="220" y="280" as="sourcePoint" />
            <mxPoint x="220" y="40" as="targetPoint" />
          </mxGeometry>
        </mxCell>
        <mxCell id="eQVwrbU0B-6UAIk1BRom-28" value="__data_start" style="rounded=0;whiteSpace=wrap;html=1;" parent="1" vertex="1">
          <mxGeometry x="-40" y="720" width="120" height="40" as="geometry" />
        </mxCell>
      </root>
    </mxGraphModel>
  </diagram>
</mxfile>
